<svg width="724" height="265" viewBox="0 0 724 265" fill="none" xmlns="http://www.w3.org/2000/svg">
<g filter="url(#filter0_d)">
<rect x="4" y="19.6631" width="174.43" height="41.6801" fill="#34CB79"/>
<rect x="545.283" y="19.6564" width="174.43" height="41.6801" fill="#34CB79"/>
<path d="M221.406 42.3281L177.845 69.9149L179.135 12.9642L221.406 42.3281Z" fill="#34CB79"/>
<path d="M502.096 40.8358L544.655 11.8554L545.382 68.8152L502.096 40.8358Z" fill="#34CB79"/>
<path d="M272.058 42.5444H257.433V52.4468H274.597V58.5659H249.816V21.5972H274.546V27.7671H257.433V36.5776H272.058V42.5444ZM298.236 48.8667C298.236 47.4279 297.728 46.3276 296.712 45.5659C295.697 44.7873 293.869 43.9748 291.228 43.1284C288.587 42.2651 286.497 41.4188 284.956 40.5893C280.759 38.3211 278.66 35.2658 278.66 31.4233C278.66 29.4259 279.218 27.6486 280.335 26.0913C281.469 24.5171 283.086 23.2899 285.185 22.4097C287.301 21.5294 289.671 21.0893 292.294 21.0893C294.935 21.0893 297.288 21.5718 299.353 22.5366C301.418 23.4845 303.018 24.8302 304.152 26.5737C305.303 28.3172 305.878 30.2977 305.878 32.5151H298.261C298.261 30.8224 297.728 29.5106 296.661 28.5796C295.595 27.6317 294.097 27.1577 292.167 27.1577C290.305 27.1577 288.858 27.5555 287.826 28.3511C286.793 29.1297 286.277 30.1623 286.277 31.4487C286.277 32.6505 286.878 33.6577 288.079 34.4702C289.298 35.2827 291.084 36.0444 293.437 36.7554C297.77 38.0587 300.927 39.6753 302.908 41.605C304.888 43.5347 305.878 45.9383 305.878 48.8159C305.878 52.0151 304.668 54.5288 302.247 56.3569C299.827 58.1681 296.568 59.0737 292.472 59.0737C289.628 59.0737 287.038 58.5574 284.703 57.5249C282.367 56.4754 280.581 55.0451 279.345 53.2339C278.126 51.4227 277.517 49.3237 277.517 46.937H285.16C285.16 51.0164 287.597 53.0561 292.472 53.0561C294.283 53.0561 295.697 52.6922 296.712 51.9643C297.728 51.2195 298.236 50.187 298.236 48.8667ZM340.079 46.2514C339.792 50.2293 338.319 53.3608 335.661 55.646C333.021 57.9311 329.534 59.0737 325.201 59.0737C320.461 59.0737 316.729 57.4826 314.003 54.3003C311.295 51.1011 309.941 46.7169 309.941 41.1479V38.8882C309.941 35.3335 310.567 32.202 311.82 29.4936C313.072 26.7853 314.858 24.7117 317.177 23.2729C319.513 21.8172 322.221 21.0893 325.302 21.0893C329.568 21.0893 333.004 22.2319 335.611 24.5171C338.217 26.8022 339.724 30.0099 340.13 34.1401H332.513C332.327 31.7534 331.658 30.0268 330.507 28.9604C329.373 27.8771 327.638 27.3354 325.302 27.3354C322.763 27.3354 320.859 28.2495 319.589 30.0776C318.337 31.8888 317.693 34.7072 317.66 38.5327V41.3257C317.66 45.3205 318.26 48.2404 319.462 50.0854C320.681 51.9305 322.594 52.853 325.201 52.853C327.553 52.853 329.305 52.3198 330.456 51.2534C331.624 50.1701 332.293 48.5028 332.462 46.2514H340.079ZM375.449 40.9194C375.449 44.5587 374.805 47.7495 373.519 50.4917C372.232 53.2339 370.387 55.3498 367.984 56.8393C365.597 58.3289 362.855 59.0737 359.757 59.0737C356.693 59.0737 353.96 58.3374 351.556 56.8647C349.152 55.3921 347.29 53.2931 345.97 50.5679C344.65 47.8257 343.981 44.6772 343.964 41.1225V39.2944C343.964 35.6551 344.616 32.4559 345.919 29.6968C347.24 26.9207 349.093 24.7964 351.48 23.3237C353.884 21.8341 356.626 21.0893 359.706 21.0893C362.787 21.0893 365.521 21.8341 367.908 23.3237C370.311 24.7964 372.165 26.9207 373.468 29.6968C374.788 32.4559 375.449 35.6466 375.449 39.269V40.9194ZM367.73 39.2436C367.73 35.3673 367.036 32.422 365.648 30.4077C364.26 28.3934 362.279 27.3862 359.706 27.3862C357.15 27.3862 355.178 28.3849 353.79 30.3823C352.402 32.3628 351.7 35.2742 351.683 39.1167V40.9194C351.683 44.6942 352.377 47.6225 353.765 49.7046C355.153 51.7866 357.15 52.8276 359.757 52.8276C362.313 52.8276 364.277 51.8289 365.648 49.8315C367.019 47.8172 367.713 44.8888 367.73 41.0464V39.2436ZM388.601 52.4468H404.775V58.5659H380.984V21.5972H388.601V52.4468ZM439.255 58.5659H431.638V42.7222H416.785V58.5659H409.167V21.5972H416.785V36.5776H431.638V21.5972H439.255V58.5659ZM467.261 50.9487H453.906L451.367 58.5659H443.267L457.029 21.5972H464.087L477.925 58.5659H469.826L467.261 50.9487ZM455.962 44.7788H465.204L460.558 30.9409L455.962 44.7788Z" fill="#322153"/>
<path d="M427.913 222.56L297.179 221.241L533.027 148.251L427.913 222.56Z" fill="#34CB79"/>
<path d="M251 205.837C248.124 206.602 245.674 205.912 243.652 203.768C241.602 201.532 240.014 198.478 238.888 194.607C237.736 190.643 237.002 185.028 236.689 177.763C233.361 178.349 227.653 179.171 219.564 180.227C211.279 199.509 203.766 213.372 197.026 221.815C191.278 229.202 184.461 233.942 176.574 236.037C171.564 237.368 166.888 237.27 162.546 235.743C158.296 234.19 155.461 230.972 154.04 226.086C153.772 225.164 153.763 224.273 154.012 223.412C154.235 222.459 154.632 222.106 155.203 222.351C155.774 222.597 156.314 223.595 156.824 225.346C157.735 228.481 159.625 230.511 162.493 231.437C165.454 232.339 168.697 232.321 172.223 231.384C179.831 229.363 186.576 224.89 192.458 217.965C198.46 211.107 205.725 198.8 214.254 181.042C200.133 183.007 190.892 184.568 186.531 185.727C174.748 188.857 168.577 194.618 168.018 203.008C167.942 204.121 168.038 205.138 168.306 206.06C168.547 206.889 168.961 207.624 169.546 208.262C170.105 208.809 170.312 209.35 170.168 209.885C170.09 210.303 169.772 210.586 169.216 210.734C168.632 210.789 168.074 210.59 167.542 210.136C166.013 208.655 165.006 207.085 164.524 205.426C162.862 199.711 162.663 195.246 163.926 192.03C165.256 188.698 167.205 186.293 169.774 184.816C172.846 183.007 176.609 181.511 181.063 180.327C185.516 179.144 197.252 177.913 216.27 176.634C219.619 169.588 224.559 158.394 231.093 143.054C237.599 127.622 240.826 119.813 240.772 119.629L240.911 119.592C240.977 119.475 241.169 119.275 241.486 118.992C243.338 117.11 245.562 115.824 248.16 115.134C249.088 114.887 249.686 115.225 249.954 116.147C249.981 116.239 249.975 116.389 249.936 116.598C249.87 116.715 249.831 116.924 249.818 117.225C249.779 117.434 249.74 117.643 249.701 117.852C245.056 134.876 242.942 153.212 243.36 172.863L243.224 173.942L246.743 173.156C247.512 173.051 248.825 172.752 250.68 172.259C252.629 171.741 254.549 170.784 256.442 169.387C258.308 167.899 259.372 166.573 259.633 165.411C259.988 164.225 260.478 163.846 261.102 164.276C261.727 164.706 261.948 165.293 261.764 166.037C261.28 168.152 259.859 169.969 257.503 171.489C255.544 173.002 253.451 174.055 251.225 174.646C249.091 175.213 247.699 175.583 247.049 175.755L243.252 176.615C243.821 185.104 244.803 191.744 246.197 196.538C247.564 201.239 249.546 203.245 252.144 202.554C254.649 201.889 257.97 198.872 262.106 193.503C266.241 188.134 269.717 181.699 272.534 174.198C272.705 173.756 273.049 173.565 273.567 173.626C274.084 173.687 274.383 173.856 274.463 174.132C274.544 174.409 274.558 174.802 274.507 175.313C274.521 175.706 274.12 176.905 273.304 178.909C270.908 185.107 267.551 191.262 263.232 197.374C260.087 201.685 256.01 204.506 251 205.837ZM238.428 134.253C238.467 134.044 238.493 133.789 238.506 133.488C238.584 133.07 238.643 132.756 238.682 132.547C231.668 151.391 225.882 166.037 221.324 176.483L236.621 174.951C236.296 164.213 236.899 150.647 238.428 134.253ZM260.393 256.37C259.651 256.567 258.683 256.675 257.489 256.694C252.289 256.686 249.14 254.792 248.04 251.012C246.968 247.325 248.073 242.017 251.355 235.087C254.664 228.25 262.658 217.586 275.335 203.096C278.021 187.586 279.521 174.527 279.834 163.917C279.359 165.036 278.365 167.287 276.849 170.668C275.307 173.958 274.345 176.15 273.964 177.244C273.583 178.339 272.993 178.545 272.195 177.863C271.822 177.267 271.773 176.585 272.05 175.816C273.196 173.228 274.677 169.557 276.493 164.805C278.283 159.96 279.395 157.083 279.83 156.173C281.203 154.02 283.868 153.561 287.825 154.793C289.272 155.303 289.937 155.871 289.82 156.498C288.084 170.464 286.345 183.041 284.601 194.229C286.32 192.581 289.088 188.866 292.904 183.086C296.694 177.213 299.959 171.43 302.701 165.737C304.046 162.798 304.959 162.158 305.441 163.817C306.112 166.122 302.314 173.684 294.049 186.506C289.216 193.947 285.715 198.749 283.546 200.915C280.351 219.141 278.011 230.686 276.527 235.549C272.359 247.68 266.981 254.62 260.393 256.37ZM274.219 209.053C265.498 220.307 259.422 228.972 255.991 235.047C252.587 241.214 251.502 246.418 252.735 250.659C253.111 251.949 253.796 252.76 254.792 253.091C255.788 253.423 256.75 253.465 257.678 253.218C258.605 252.972 259.75 251.923 261.11 250.072C262.471 248.221 263.6 246.432 264.497 244.704C265.328 243.093 266.033 241.565 266.612 240.12C267.218 238.767 267.856 237.009 268.526 234.845C269.13 232.798 269.61 231.181 269.964 229.994C270.319 228.808 270.777 226.948 271.34 224.415C271.837 221.999 272.197 220.315 272.419 219.362C272.576 218.526 272.909 216.749 273.418 214.032C273.834 211.34 274.101 209.68 274.219 209.053ZM292.605 129.989L292.779 134.709C293.02 135.539 292.759 137.048 291.996 139.237C291.326 141.401 290.667 142.569 290.017 142.742C286.027 143.801 283.751 143.364 283.188 141.428C283.081 141.059 284.58 138.824 287.685 134.722L289.528 132.296C290.823 130.561 291.609 129.657 291.888 129.583C292.259 129.485 292.498 129.62 292.605 129.989ZM366.346 150.615C365.678 153.474 364.098 157.32 361.606 162.153C359.113 166.985 356.737 170.844 354.477 173.728C351.543 177.388 347.896 179.797 343.535 180.955C342.7 181.177 341.466 181.058 339.833 180.598C338.32 180.206 337.117 179.334 336.224 177.982C335.331 176.63 334.684 175.263 334.282 173.88C332.888 169.087 332.435 164.093 332.923 158.899C332.699 159.157 331.976 161.484 330.756 165.88C329.601 170.159 327.836 174.401 325.461 178.607C323.179 182.788 320.368 185.323 317.028 186.21C315.45 186.629 313.521 186.695 311.238 186.408C307.044 185.734 304.304 183.185 303.017 178.761C301.436 173.322 301.669 167.252 303.719 160.551C305.834 153.733 307.348 150.004 308.261 149.364C309.546 148.626 310.791 148.096 311.997 147.776C313.296 147.431 314.676 147.362 316.135 147.57C317.568 147.686 317.624 148.565 316.303 150.207C311.589 157.715 308.92 165.375 308.293 173.188C308.077 176.225 308.25 178.711 308.813 180.647C309.349 182.49 310.162 183.566 311.25 183.872C312.432 184.154 313.486 184.172 314.414 183.925C316.641 183.334 319.214 181.012 322.133 176.959C325.119 172.79 328.577 164.92 332.509 153.349C333.034 151.72 333.881 148.615 335.047 144.035C336.187 139.363 336.882 136.596 337.132 135.736C338.616 135.341 340.44 135.254 342.603 135.474C344.831 135.577 345.782 136.268 345.454 137.546C343.145 146.104 341.572 152.381 340.735 156.377C339.991 160.348 339.978 164.77 340.696 169.644C340.844 170.498 341.106 171.571 341.481 172.861C341.857 174.152 342.536 175.113 343.52 175.746C345.34 176.851 347.269 176.438 349.306 174.506C351.409 172.458 354.045 168.977 357.214 164.064C360.356 159.059 362.69 154.367 364.215 149.99C364.452 149.43 364.843 149.227 365.387 149.38C365.998 149.417 366.343 149.573 366.424 149.85C366.477 150.034 366.451 150.289 366.346 150.615ZM367.345 144.094C370.448 139.297 373.851 135.017 377.554 131.253C381.257 127.488 384.313 124.938 386.723 123.603C389.134 122.268 391.591 121.267 394.096 120.601C396.602 119.936 399.209 120.137 401.918 121.205C406.104 88.514 413.996 70.6281 425.594 67.5469C429.491 66.5116 432.457 66.9153 434.492 68.7579C435.463 69.6915 436.069 70.5731 436.31 71.4027C436.981 73.7073 436.818 76.9282 435.822 81.0656C434.892 85.0861 432.957 89.7711 430.015 95.1207C427.073 100.47 422.616 107.315 416.645 115.653C410.648 123.9 407.339 128.503 406.718 129.462C405.733 137.073 405.33 144.28 405.51 151.084C405.69 157.888 406.235 162.857 407.147 165.992C408.058 169.126 409.339 171.467 410.988 173.015C411.893 174.065 412.929 174.534 414.096 174.423C415.29 174.404 416.178 174.019 416.759 173.269C417.46 172.586 417.943 172.011 418.206 171.544C418.563 171.052 418.966 170.547 419.416 170.031C419.985 169.582 420.435 169.412 420.767 169.523C421.099 169.633 421.2 170.152 421.07 171.081C420.596 172.2 420.128 173.168 419.666 173.986C418.477 175.394 416.861 176.37 414.82 176.912C412.872 177.43 411.559 177.729 410.883 177.809C406.215 178.255 403.05 175.62 401.388 169.905C399.78 164.374 399.034 159.061 399.151 153.965C399.316 146.97 399.617 141.131 400.054 136.446C390.195 157.536 382.157 168.907 375.941 170.558C374.456 170.953 372.699 170.923 370.668 170.47C368.756 170.084 366.97 169.267 365.308 168.021C363.619 166.682 362.507 165.091 361.971 163.247C361.435 161.404 361.343 159.541 361.695 157.66C362.425 153.295 364.308 148.773 367.345 144.094ZM401.448 123.713C400.174 123.455 398.145 123.697 395.362 124.436C392.578 125.176 389.295 127.289 385.511 130.777C381.794 134.148 378.483 138.056 375.578 142.502C373.215 146.407 371.344 150.628 369.965 155.165C368.652 159.585 368.25 162.671 368.759 164.423C369.751 167.833 371.221 169.28 373.17 168.762C375.118 168.245 377.631 165.889 380.71 161.695C388.569 150.57 395.288 139.649 400.867 128.932L401.448 123.713ZM432.092 78.0347C432.655 75.502 432.722 73.4981 432.293 72.0232C431.837 70.4561 430.914 69.8575 429.522 70.2272C428.223 70.5723 426.701 71.8703 424.957 74.1211C417.003 84.5758 411.538 99.9799 408.561 120.333C413.466 114.86 418.274 108.021 422.985 99.8185C427.696 91.6156 430.732 84.3544 432.092 78.0347ZM428.13 156.693C426.646 157.087 424.888 157.058 422.857 156.604C420.946 156.218 419.159 155.402 417.498 154.155C415.809 152.816 414.696 151.225 414.16 149.382C413.624 147.538 413.532 145.676 413.885 143.795C414.614 139.43 416.498 134.908 419.535 130.228C422.638 125.432 426.04 121.151 429.743 117.387C433.446 113.623 436.503 111.073 438.913 109.737C441.323 108.402 443.735 107.414 446.147 106.773C448.652 106.107 450.974 106.186 453.112 107.008C455.223 107.738 456.48 108.794 456.882 110.177C457.016 110.638 457.05 110.927 456.984 111.044C456.918 111.16 456.673 111.176 456.248 111.09C454.625 109.635 452.051 109.375 448.525 110.312C445.092 111.224 441.484 113.424 437.701 116.911C433.984 120.282 430.672 124.191 427.768 128.637C425.405 132.541 423.534 136.762 422.155 141.3C420.841 145.72 420.44 148.806 420.949 150.557C421.941 153.968 423.411 155.414 425.359 154.897C427.308 154.379 429.821 152.023 432.899 147.829C437.878 140.548 441.199 135.297 442.86 132.075C448.742 120.681 452.008 114.898 452.657 114.725C453.771 114.43 455.21 114.395 456.975 114.621C458.74 114.847 459.478 115.495 459.189 116.565C456.388 124.459 455.548 131.882 456.67 138.833C456.818 139.687 457.08 140.759 457.455 142.05C457.831 143.34 458.51 144.302 459.494 144.934C461.314 146.04 463.243 145.626 465.28 143.695C467.317 141.764 469.907 138.295 473.049 133.29C476.283 128.259 478.664 123.556 480.189 119.178C480.426 118.619 480.817 118.416 481.361 118.569C481.879 118.63 482.164 118.753 482.218 118.937C482.62 120.32 481.278 123.953 478.192 129.838C475.171 135.605 472.743 139.627 470.906 141.902C467.483 146.287 463.916 148.973 460.205 149.959C456.679 150.895 453.804 149.773 451.579 146.59C450.979 145.558 450.478 144.35 450.076 142.968C448.87 138.82 448.478 134.207 448.9 129.129C448.583 129.412 447.402 131.712 445.359 136.028C443.316 140.345 440.723 144.658 437.579 148.969C434.527 153.256 431.378 155.83 428.13 156.693ZM503.712 138.698C498.98 139.955 495.796 137.772 494.161 132.149C492.499 126.434 494.544 118.344 500.296 107.878C500.758 107.06 501.074 106.43 501.245 105.987L501.817 104.346C502.607 102.249 502.888 100.983 502.662 100.547L501.882 99.4131C501.189 98.4056 499.431 98.0287 496.606 98.2827C493.754 98.4444 491.494 98.7472 489.824 99.1909C484.878 113.116 481.997 121.081 481.18 123.086C480.364 125.09 479.684 126.016 479.139 125.862C478.595 125.709 478.269 125.448 478.162 125.079C478.055 124.71 478.172 124.083 478.514 123.198C481.755 115.783 484.18 108.138 485.788 100.263C484.621 100.375 483.678 100.228 482.961 99.8225C482.216 99.3251 481.875 98.3235 481.937 96.8175C481.972 95.2194 482.801 92.9138 484.423 89.9008C486.139 86.8632 487.757 84.6955 489.279 83.3975C490.8 82.0995 491.766 81.2967 492.176 80.9891C492.587 80.6815 493.07 80.4537 493.627 80.3058C494.74 80.01 494.852 81.7679 493.961 85.5794L491.026 95.5943C495.282 94.7616 498.894 93.9508 501.863 93.162L506.694 91.7296C508.271 91.3106 509.498 91.2329 510.375 91.4966C511.224 91.6682 511.611 92.3102 511.534 93.4228C511.394 95.3468 510.454 98.1288 508.714 101.769C505.024 109.7 502.846 117.677 502.18 125.699C502.04 127.623 502.158 129.23 502.533 130.521C503.31 133.194 504.673 134.272 506.622 133.754C507.271 133.582 508.33 132.754 509.798 131.272C511.359 129.765 513.723 126.555 516.892 121.641C520.034 116.636 522.368 111.944 523.894 107.567C524.131 107.007 524.521 106.804 525.066 106.958C525.676 106.994 526.021 107.151 526.102 107.427C526.155 107.612 526.13 107.867 526.024 108.192C525.357 111.051 523.776 114.897 521.284 119.73C518.791 124.563 516.177 128.634 513.441 131.942C510.852 135.411 507.608 137.663 503.712 138.698Z" fill="#322153"/>
</g>
<defs>
<filter id="filter0_d" x="0" y="11.8554" width="723.713" height="252.839" filterUnits="userSpaceOnUse" color-interpolation-filters="sRGB">
<feFlood flood-opacity="0" result="BackgroundImageFix"/>
<feColorMatrix in="SourceAlpha" type="matrix" values="0 0 0 0 0 0 0 0 0 0 0 0 0 0 0 0 0 0 127 0"/>
<feOffset dy="4"/>
<feGaussianBlur stdDeviation="2"/>
<feColorMatrix type="matrix" values="0 0 0 0 0 0 0 0 0 0 0 0 0 0 0 0 0 0 0.25 0"/>
<feBlend mode="normal" in2="BackgroundImageFix" result="effect1_dropShadow"/>
<feBlend mode="normal" in="SourceGraphic" in2="effect1_dropShadow" result="shape"/>
</filter>
</defs>
</svg>
